<svg id="Layer_1" data-name="Layer 1" xmlns="http://www.w3.org/2000/svg" viewBox="0 0 248.36 231.33"><path d="M583.18,603.28c-9.41,8.86-18.75,17.79-27.47,27.33-1.81,2-3.16,2.12-4.84.23-12.43-14.05-26.46-26.51-39.82-39.64q-38.16-37.51-76.39-75c-5.94-5.82-5.8-5.74-2.27-13.4q19.89-43.12,39.51-86.36c1.14-2.54,2.39-3.42,5.1-3.41q76.18.09,152.36,0c2.66,0,3.9.83,5.12,3.41,14.28,30.46,27.24,61.52,42.34,91.6,1.19,2.36.37,3.31-1.3,4.92-12.85,12.44-25.54,25-38.28,37.61-2.47.06-4.94.1-7.42.19-16.83.6-30,7.8-39.59,21.72C583.77,581.9,582.82,592.41,583.18,603.28ZM553.91,440.07c-19.09,0-38.17.13-57.26-.1-4.67-.05-6.07,1.5-5.87,6.06.33,7.61.25,15.26,0,22.89-.12,4.14,1.51,5.63,5.55,5.58,11.28-.14,22.57,0,33.85-.11,3.85,0,6.78,0,4.88,5.32a10.26,10.26,0,0,0,0,6.39c1.61,4.54-.57,4.83-4.24,5.13-16.51,1.33-33,2.95-48.73,8.72-4.12,1.51-7.49,3.88-7.89,7.83s3.57,5.61,6.8,7c15.79,6.83,32.71,8.05,49.51,9.52,4.52.4,6,1.55,5.91,6.14-.25,17.08,0,34.18-.22,51.27-.06,4.58,1.67,5.7,5.85,5.56,7.46-.25,14.95-.33,22.4,0,4.77.23,5.88-1.59,5.82-6.07-.25-17.09-.1-34.19-.14-51.28,0-2.8-.16-5.28,3.82-5.52,6.61-.41,13.22-1,19.77-1.89,10.33-1.39,20.66-2.92,30.29-7.26,3.49-1.56,7.93-2.89,7.79-7.34-.14-4.79-4.83-6.25-8.61-7.87-13.46-5.76-27.92-6.87-42.18-8.62-10.81-1.33-10.7-.93-10.94-11.68-.09-4.06,1-5.54,5.27-5.43,11.44.29,22.9,0,34.35.18,4.3.09,6.06-1.46,6-5.73-.13-7.8-.16-15.6,0-23.4.09-4.08-1.46-5.46-5.59-5.42C591.41,440.16,572.66,440.06,553.91,440.07Z" transform="translate(-429.93 -413.07)" fill="#4eb6ac"/><path d="M583.18,603.28c-.36-10.87.59-21.38,7.05-30.75,9.6-13.92,22.76-21.12,39.59-21.72,2.48-.09,4.95-.13,7.42-.19,7.33,2.5,14.88,4.34,21.32,9.1,16,11.87,22.29,28.12,18.79,47.12-3.3,18-14.88,29.89-32.62,35.36C614.21,651.6,586.07,629.39,583.18,603.28Z" transform="translate(-429.93 -413.07)" fill="#efb90e"/><path d="M556.78,519.1c-21.7-.37-39.53-1.31-57.08-5.18a56.59,56.59,0,0,1-9-2.86c-2.07-.85-4.67-1.68-4.52-4.63.13-2.52,2.29-3.45,4.3-4.33,5.81-2.54,12-3.62,18.23-4.55,7.69-1.17,15.41-2.05,23.19-2.54,2.92-.18,4,.76,4,3.48,0,3.65,0,7.3-.09,10.94-.08,2.61.76,4.12,3.62,4.11,9.12,0,18.24-.06,27.36,0,2.64,0,3.49-1.24,3.43-3.67-.1-3.81-.06-7.63-.07-11.44,0-2.32.7-3.87,3.47-3.6,12.84,1.25,25.78,1.79,38.21,5.72,3.37,1.07,8.16,1.58,8.25,5.85.09,3.94-4.36,4.88-7.66,5.92-10.8,3.41-22,4.68-33.19,5.5C570.52,518.48,561.77,519.45,556.78,519.1Z" transform="translate(-429.93 -413.07)" fill="#4eb6ac"/></svg>